# xmcd CD database file
#
# Track frame offsets:
#	150
#	21023
#	36466
#	52087
#	80301
#	93041
#	127738
#	141375
#	154334
#	173152
#	179201
#	211793
#	231901
#	247813
#	256914
#
# Disc length: 3670 seconds
#
# Revision: 2
# Processed by: cddbd v1.5.1PL2 Copyright (c) Steve Scherf et al.
# Submitted via: CDex 1.51
#
DISCID=c70e540f
DTITLE=Tibetan Opera - The Tibet Modern Classic Music
DYEAR=1900
DGENRE=New Age
TTITLE0=Graceful Bearing of Tibetan Opera
TTITLE1=Galsang La
TTITLE2=Prayng
TTITLE3=Pilgrimade
TTITLE4=Potala Palace in the rain
TTITLE5=A Glimps of the Xigaze Area
TTITLE6=The Holy City
TTITLE7=Gesar
TTITLE8=Oh, Kamba
TTITLE9=Xigaze My beaultiful hometown
TTITLE10=Spring of the snowland
TTITLE11=Clouds in the high sky
TTITLE12=Mountain Village of the Shaba People
TTITLE13=Solang yanzong la
TTITLE14=Lanka zhuoga
EXTD=
EXTT0=
EXTT1=
EXTT2=
EXTT3=
EXTT4=
EXTT5=
EXTT6=
EXTT7=
EXTT8=
EXTT9=
EXTT10=
EXTT11=
EXTT12=
EXTT13=
EXTT14=
PLAYORDER=
